# xmcd
#
# Track frame offsets:
# 150
# 15286
# 30142
# 50550
# 65606
# 81444
# 96496
# 110919
# 126132
# 144315
#
# Disc length: 2080 seconds
#
#
# Revision: 0
# Processed by: cddbd v1.5PL3 Copyright (c) Steve Scherf et al.
# Submitted via: FreeRIP 2.53 
#
DISCID=83081e0a
DTITLE=Cash, Rosanne - Super Hits
DYEAR=1900
DGENRE=
TTITLE0=Seven Year Ache
TTITLE1=My Baby Thinks He's A Train
TTITLE2=Blue Moon With A Heartache
TTITLE3=I Don't Know Why You Don't Want Me
TTITLE4=Never Be You
TTITLE5=The Way We Make A Beoken Heart
TTITLE6=Tennessee Flat Top Box
TTITLE7=If You Change Your Mind
TTITLE8=Runaway Train
TTITLE9=I Don't Want To Spoil The Party
EXTD=
EXTT0=
EXTT1=
EXTT2=
EXTT3=
EXTT4=
EXTT5=
EXTT6=
EXTT7=
EXTT8=
EXTT9=
PLAYORDER=
